<?xml version="1.0" encoding="utf-8"?>
<!-- Generator: Adobe Illustrator 25.2.3, SVG Export Plug-In . SVG Version: 6.00 Build 0)  -->
<svg version="1.1" id="Layer_1" xmlns="http://www.w3.org/2000/svg" xmlns:xlink="http://www.w3.org/1999/xlink" x="0px" y="0px"
	 viewBox="0 0 200 200" style="enable-background:new 0 0 200 200;" xml:space="preserve">
<style type="text/css">
	.st0{fill:#8C85C8;}
	.st1{fill:#C5C2E3;}
	.st2{fill:#A9A3D6;}
</style>
<g>
	<g>
		<path class="st0" d="M3.12,96.96c0-0.4,0-0.8,0-1.2c0.08-0.29,0.21-0.57,0.24-0.87c0.39-3.33,0.61-6.69,1.18-9.99
			c4.37-25.29,16.81-45.77,37.19-61.29C56.67,12.23,73.64,5.93,92.38,4.5c1.21-0.09,2.41-0.28,3.62-0.42c2.48,0,4.96,0,7.44,0
			c0.25,0.08,0.5,0.2,0.75,0.23c3.73,0.4,7.5,0.58,11.2,1.21c24.64,4.17,44.77,16.1,60.28,35.65
			c11.89,14.99,18.56,32.14,20.23,51.22c0.08,0.97,0.28,1.93,0.42,2.9c0,0.88,0,1.76,0,2.64c0,1.84,0,3.68,0,5.52
			c0,0.96,0,1.92,0,2.88c-0.09,0.37-0.21,0.73-0.26,1.11c-0.58,4.23-0.89,8.52-1.76,12.69c-4.66,22.29-15.8,40.76-33.36,55.25
			c-14.52,11.98-31.23,19.02-49.94,21.24c-1.72,0.2-3.44,0.45-5.16,0.67c-4.08,0-8.16,0-12.24,0c-0.37-0.09-0.74-0.21-1.11-0.26
			c-2.85-0.35-5.73-0.56-8.56-1.05c-23.62-4.1-43.21-15.3-58.54-33.72c-12.9-15.5-20.12-33.4-21.83-53.52
			c-0.09-1.05-0.28-2.09-0.43-3.14c0-0.4,0-0.8,0-1.2c0.08-1.83,0.19-3.66,0.23-5.5C3.36,98.26,3.2,97.61,3.12,96.96z M18.27,100.64
			c-0.02,44.74,36.43,81.39,80.89,81.59c44.76,0.2,81.28-35.7,82.04-80.07c0.77-45.04-35.36-82.65-81-82.88
			C54.97,19.05,18.3,55.64,18.27,100.64z"/>
		<path class="st1" d="M3.12,96.96c0.08,0.65,0.24,1.3,0.23,1.94c-0.04,1.83-0.15,3.66-0.23,5.5C3.12,101.92,3.12,99.44,3.12,96.96z
			"/>
		<path class="st2" d="M196.32,103.44c0-1.84,0-3.68,0-5.52C196.32,99.76,196.32,101.6,196.32,103.44z"/>
		<path class="st0" d="M79.43,64.04c-0.22,2.47-0.43,4.76-0.65,7.29c0.4-0.32,0.67-0.51,0.91-0.74c8.59-8.22,18.81-9.98,30.03-7.45
			c3.59,0.81,6.54,2.81,8.46,6.04c0.45,0.75,0.72,1.7,0.79,2.58c0.55,7.05,1.11,14.11,1.49,21.17c0.09,1.63-0.4,3.31-0.74,4.94
			c-2.55,12.12-5.13,24.23-7.7,36.35c-0.14,0.64-0.21,1.17-1.15,1.17c-9-0.04-18-0.02-26.99-0.03c-0.16,0-0.31-0.04-0.68-0.08
			c0.14-0.8,0.26-1.56,0.42-2.31c2.8-13.29,5.62-26.58,8.37-39.87c0.34-1.63,0.43-3.33,0.43-5c-0.01-3.73-2.17-5.87-5.9-5.96
			c-3.89-0.09-6.83,1.66-9.01,4.8c-2.16,3.11-3.26,6.66-4.04,10.31c-2.6,12.27-5.17,24.55-7.72,36.83c-0.21,1.01-0.6,1.32-1.64,1.32
			c-8.6-0.04-17.2-0.02-25.79-0.02c-0.4,0-0.79,0-1.36,0c0.53-2.57,1.05-5.01,1.55-7.45c4.25-20.5,8.51-40.99,12.75-61.49
			c0.49-2.37,0.47-2.37,2.86-2.37c7.92,0,15.84,0,23.75,0C78.34,64.04,78.8,64.04,79.43,64.04z"/>
		<path class="st0" d="M129.47,135.36c0.43-2.08,0.82-3.98,1.22-5.88c2.55-12.12,5.11-24.23,7.61-36.36
			c0.32-1.55,0.42-3.18,0.4-4.76c-0.05-3.71-2.22-5.84-5.92-6c-1.65-0.07-1.62-0.07-1.73-1.74c-0.33-4.78-0.65-9.57-1.04-14.35
			c-0.06-0.8,0.19-1.16,0.89-1.43c7.55-2.96,15.31-3.67,23.18-1.74c8.21,2.01,12.98,8.01,13.73,16.44
			c0.48,5.46-0.45,10.75-1.57,16.03c-2.7,12.74-5.4,25.48-8.04,38.23c-0.24,1.18-0.62,1.6-1.91,1.59
			c-8.4-0.07-16.79-0.04-25.19-0.04C130.61,135.36,130.14,135.36,129.47,135.36z"/>
	</g>
</g>
</svg>
