<?xml version="1.0" encoding="utf-8"?>
<!-- Generator: Adobe Illustrator 25.2.3, SVG Export Plug-In . SVG Version: 6.00 Build 0)  -->
<svg version="1.1" id="Layer_1" xmlns="http://www.w3.org/2000/svg" xmlns:xlink="http://www.w3.org/1999/xlink" x="0px" y="0px"
	 viewBox="0 0 200 200" style="enable-background:new 0 0 200 200;" xml:space="preserve">
<g>
	<path d="M100.5,18c45.49,0,82.5,37.01,82.5,82.5S145.99,183,100.5,183S18,145.99,18,100.5S55.01,18,100.5,18 M100.5,3
		C46.65,3,3,46.65,3,100.5S46.65,198,100.5,198s97.5-43.65,97.5-97.5S154.35,3,100.5,3L100.5,3z"/>
</g>
<g>
	<g>
		<path d="M40.04,105.76c0.59,3.43,3.29,5.74,8.76,5.74c4.11,0,7.2-1.09,7.2-4.33c0-2.45-1.44-3.83-8.44-5.62
			c-12.17-3.12-16.27-6.8-16.27-13.19c0-9.17,7.97-15.27,20.72-15.27c15.31,0,20.58,7.17,20.9,13.99H59.56
			c-0.36-2.2-1.86-4.74-7.61-4.74c-3.57,0-5.72,1.67-5.72,4.04c0,2.51,2.09,3.36,8.35,4.91c13.05,3.25,16.47,7.69,16.47,14.16
			c0,9.07-8.07,15.45-22.91,15.45c-13.49,0-20.89-5.31-21.72-15.13H40.04z"/>
		<path d="M123.82,104.25c-2.91,10.07-11.06,16.63-25.09,16.63c-15.37,0-21.87-8.62-21.87-19.92c0-13.61,8.86-27.89,28.05-27.89
			c13.82,0,20.92,7.17,21.24,16.98h-14.46c-0.05-3.16-1.54-7.28-7.39-7.28c-8.79,0-12.37,10.75-12.37,18.14
			c0,5.47,1.72,10.05,8.18,10.05c4.56,0,7.36-2.2,9.41-6.73H123.82z"/>
		<path d="M141.11,105.76c0.59,3.43,3.29,5.74,8.76,5.74c4.11,0,7.2-1.09,7.2-4.33c0-2.45-1.44-3.83-8.43-5.62
			c-12.17-3.12-16.27-6.8-16.27-13.19c0-9.17,7.97-15.27,20.72-15.27c15.31,0,20.58,7.17,20.9,13.99h-13.35
			c-0.36-2.2-1.86-4.74-7.61-4.74c-3.57,0-5.72,1.67-5.72,4.04c0,2.51,2.09,3.36,8.35,4.91c13.05,3.25,16.47,7.69,16.47,14.16
			c0,9.07-8.07,15.45-22.91,15.45c-13.49,0-20.89-5.31-21.72-15.13H141.11z"/>
	</g>
</g>
</svg>
